<svg xmlns="http://www.w3.org/2000/svg" width="931" height="113" viewBox="0 0 931 113"><g fill="none" fill-rule="evenodd"><path fill="#EF4445" d="M21.365955,2.34141286 C34.2351362,-2.67169537 48.8131238,0.897310946 58.0247973,11.316289 C58.6654269,12.0124737 59.5613408,12.4076083 60.4992152,12.4076083 C61.4370895,12.4076083 62.3330035,12.0124737 62.9736331,11.316289 C72.1581285,0.827593085 86.7716892,-2.78771703 99.6716988,2.23740034 C112.571708,7.26251776 121.06424,19.8786606 120.999557,33.9194829 C120.999557,48.0003626 111.923548,58.514906 102.848666,67.7381897 L69.6224968,100.40706 C67.3420842,103.069007 64.0462485,104.606788 60.5735602,104.629866 C57.1008718,104.651494 53.786136,103.156264 51.4727322,100.523889 L18.1497643,67.7381897 C9.07488213,58.514906 0,48.0618512 0,33.9194829 C0,19.912057 8.49677496,7.354521 21.365955,2.34141286 Z"/><path fill="#FFF" fill-rule="nonzero" d="M189.891282,95.6733333 C213.549043,95.6733333 227.643028,85.5033333 227.643028,67.0466667 C227.643028,35.5322222 173.280514,47.46 173.280514,31.7655556 C173.280514,24.86 181.711737,22.9766667 189.010408,22.9766667 C201.846001,22.9766667 214.681595,28.5011111 222.231944,36.7877778 L223.742014,36.7877778 L223.742014,16.0711111 C215.310791,8.91444447 203.859428,4.77111113 190.017121,4.77111113 C171.896283,4.77111113 154.278802,13.56 154.278802,31.0122222 C154.278802,61.7733333 207.508763,52.2311111 207.508763,67.0466667 C207.508763,74.7055556 198.700023,76.5888889 191.275513,76.5888889 C183.095968,76.5888889 167.491913,74.58 155.914711,62.4011111 L154.152962,62.4011111 L154.152962,86.1311111 C166.611039,93.9155556 180.201667,95.6733333 189.891282,95.6733333 Z M245.344402,22.9766667 C252.643073,22.9766667 257.299121,17.9544445 257.299121,11.9277778 C257.299121,5.90111113 252.517234,0.878888912 245.344402,0.878888912 C238.045731,0.878888912 233.263843,5.90111113 233.263843,11.9277778 C233.263843,17.9544445 237.919892,22.9766667 245.344402,22.9766667 Z M255.411534,94.1666667 L255.411534,23.8555556 L254.782338,23.8555556 C252.391394,26.1155556 248.742059,27.12 245.344402,27.12 C241.820906,27.12 238.17157,26.1155556 235.780626,23.8555556 L235.151431,23.8555556 L235.151431,94.1666667 L255.411534,94.1666667 Z M284.69011,94.1666667 L284.69011,80.9833333 C284.69011,60.8944445 284.564271,38.1688889 301.0492,38.1688889 C312.500563,38.1688889 314.639829,48.7155556 314.639829,60.0155556 L314.639829,94.1666667 L334.648254,94.1666667 L334.648254,74.4544445 C334.648254,55.8722222 336.661681,38.1688889 351.63654,38.1688889 C363.591259,38.1688889 365.478847,50.9755556 365.478847,63.28 L365.478847,94.1666667 L385.613111,94.1666667 L385.613111,51.3522222 C385.613111,26.7433334 376.301014,17.3266667 361.703672,17.3266667 C344.086191,17.3266667 334.522415,31.64 332.634828,58.6344445 L331.502275,58.6344445 C331.879793,55.1188889 332.131471,50.7244445 332.131471,46.8322222 C332.131471,29.2544445 324.706961,17.3266667 309.354584,17.3266667 C292.869655,17.3266667 285.445145,29.1288889 282.299166,58.6344445 L281.040775,58.6344445 L285.319306,18.8333334 L264.681685,18.8333334 L264.681685,94.1666667 L284.69011,94.1666667 Z M414.136652,113 L414.136652,84.1222222 L411.49403,65.9166667 L412.878261,65.9166667 C414.640009,90.0233333 428.104798,95.6733333 442.576301,95.6733333 C462.710565,95.6733333 475.42032,78.8488889 475.42032,56.3744445 C475.42032,33.9 462.710565,17.3266667 442.576301,17.3266667 C431.879973,17.3266667 417.030953,22.8511111 413.633296,44.6977778 L412.626583,44.6977778 L415.017526,18.8333334 L394.757423,18.8333334 L394.757423,113 L414.136652,113 Z M434.145078,76.3377778 C421.561162,76.3377778 411.619869,69.6833333 411.619869,55.9977778 C411.619869,42.4377778 421.561162,35.9088889 434.145078,35.9088889 C446.854832,35.9088889 456.670286,42.4377778 456.670286,55.9977778 C456.670286,69.6833333 446.854832,76.3377778 434.145078,76.3377778 Z M502.307952,94.1666667 L502.307952,2.29361266e-08 L482.173688,2.29361266e-08 L482.173688,94.1666667 L502.307952,94.1666667 Z M551.091597,95.6733333 C563.423834,95.6733333 573.490966,92.7855556 579.657085,88.8933333 L579.657085,69.8088889 L578.398693,69.8088889 C571.729218,74.58 562.54296,77.2166667 553.356702,77.2166667 C544.170444,77.2166667 527.433836,74.0777778 527.056319,55.8722222 L582.551385,57.7555556 C582.928903,54.9933333 583.180581,52.4822222 583.180581,50.0966667 C583.180581,29.38 567.199009,17.3266667 547.69394,17.3266667 C524.287858,17.3266667 508.557964,34.7788889 508.557964,56.3744445 C508.557964,78.8488889 525.294571,95.6733333 551.091597,95.6733333 Z M527.937193,50.4733333 C530.202298,39.1733333 540.143591,34.7788889 547.945618,34.7788889 C557.509394,34.7788889 565.059743,40.68 565.940617,49.72 L527.937193,50.4733333 Z M678.860284,94.1666667 L678.860284,77.0911111 L642.744447,77.0911111 C640.227664,77.0911111 637.207524,77.0911111 636.074972,79.4766667 L636.074972,6.2777778 L615.689029,6.2777778 L615.689029,94.1666667 L678.860284,94.1666667 Z M695.932462,22.9766667 C703.231133,22.9766667 707.887182,17.9544445 707.887182,11.9277778 C707.887182,5.90111113 703.105294,0.878888912 695.932462,0.878888912 C688.633791,0.878888912 683.851904,5.90111113 683.851904,11.9277778 C683.851904,17.9544445 688.507952,22.9766667 695.932462,22.9766667 Z M705.999595,94.1666667 L705.999595,23.8555556 L705.370399,23.8555556 C702.979455,26.1155556 699.330119,27.12 695.932462,27.12 C692.408966,27.12 688.759631,26.1155556 686.368687,23.8555556 L685.739491,23.8555556 L685.739491,94.1666667 L705.999595,94.1666667 Z M824.330345,17.3266667 C843.835413,17.3266667 859.816986,29.38 859.816986,50.0966667 C859.816986,52.4822222 859.565308,54.9933333 859.18779,57.7555556 L803.692724,55.8722222 C804.070241,74.0777778 820.806848,77.2166667 829.993107,77.2166667 C839.179365,77.2166667 848.365623,74.58 855.035098,69.8088889 L856.29349,69.8088889 L856.29349,88.8933333 C850.127371,92.7855556 840.060239,95.6733333 827.728002,95.6733333 C801.930975,95.6733333 785.194368,78.8488889 785.194368,56.3744445 C785.194368,34.7788889 800.924262,17.3266667 824.330345,17.3266667 Z M736.410723,2.29361266e-08 L733.013066,57.3788889 L734.271458,57.3788889 C747.610408,30.7611111 766.989637,18.8333334 766.989637,18.8333334 L789.766524,18.8333334 L789.766524,20.5911111 L762.459428,44.6977778 L791.654111,92.5344444 L791.654111,94.1666667 L769.50642,94.1666667 L748.617121,57.2533333 L735.907367,67.2977778 L735.907367,94.1666667 L715.773102,94.1666667 L715.773102,2.29361266e-08 L736.410723,2.29361266e-08 Z M824.582023,34.7788889 C816.779995,34.7788889 806.838702,39.1733333 804.573598,50.4733333 L842.577022,49.72 C841.696148,40.68 834.145799,34.7788889 824.582023,34.7788889 Z M897.023429,95.6733333 C918.290246,95.6733333 931,87.01 931,71.3155556 C931,44.3211111 881.671052,53.8633333 881.671052,41.3077778 C881.671052,36.0344445 888.214688,33.7744445 895.639198,33.7744445 C906.838883,33.7744445 918.290246,38.0433333 925.211399,44.8233333 L926.721469,44.8233333 L926.721469,26.2411111 C919.674476,21.0933334 908.72647,17.3266667 896.645911,17.3266667 C879.405947,17.3266667 864.934445,24.9855556 864.934445,39.6755556 C864.934445,67.4233333 911.62077,58.0066667 911.62077,70.1855556 C911.62077,76.7144445 904.19626,78.3466667 897.526785,78.3466667 C890.228114,78.3466667 877.140843,76.84 866.696193,66.2933333 L865.186123,66.2933333 L865.186123,87.3866667 C876.385808,94.4177778 888.214688,95.6733333 897.023429,95.6733333 Z"/></g></svg>